solid uClouds_SE_Model
facet normal 0.0 0.0 1.0
  outer loop
    vertex 4.799999904632589 35.74999999999994 -9.599999976158145
    vertex 2.799999904632589 39.499999999999936 -9.599999976158145
    vertex 2.799999904632589 35.74999999999994 -9.599999976158145
  endloop
endfacet
facet normal 0.0 0.0 1.0
  outer loop
    vertex 2.799999904632589 39.499999999999936 -9.599999976158145
    vertex 4.799999904632589 35.74999999999994 -9.599999976158145
    vertex 4.799999904632587 39.499999999999936 -9.599999976158145
  endloop
endfacet
facet normal -1.0 0.0 0.0
  outer loop
    vertex 4.799999904632587 40.499999999999936 -10.7
    vertex 4.799999904632587 39.499999999999936 -12.0
    vertex 4.799999904632587 39.499999999999936 -10.7
  endloop
endfacet
facet normal -1.0 0.0 0.0
  outer loop
    vertex 4.799999904632587 39.499999999999936 -12.0
    vertex 4.799999904632587 40.499999999999936 -10.7
    vertex 4.799999904632587 40.499999999999936 -12.0
  endloop
endfacet
facet normal 0.0 -1.0 0.0
  outer loop
    vertex 9.349999976158163 43.49999999999992 -8.699999976158145
    vertex 5.950000023841878 43.49999999999992 -10.7
    vertex 9.349999976158163 43.49999999999992 -10.7
  endloop
endfacet
facet normal 0.0 -1.0 0.0
  outer loop
    vertex 5.950000023841878 43.49999999999992 -10.7
    vertex 9.349999976158163 43.49999999999992 -8.699999976158145
    vertex 5.950000023841878 43.49999999999992 -8.699999976158145
  endloop
endfacet
facet normal 0.0 1.0 0.0
  outer loop
    vertex 4.799999904632589 42.649999999999935 -10.700000000000006
    vertex 5.950000023841878 42.649999999999935 -12.0
    vertex 4.799999904632589 42.649999999999935 -12.0
  endloop
endfacet
facet normal 0.0 1.0 0.0
  outer loop
    vertex 5.950000023841878 42.649999999999935 -12.0
    vertex 4.799999904632589 42.649999999999935 -10.700000000000006
    vertex 5.950000023841878 42.649999999999935 -10.700000000000006
  endloop
endfacet
facet normal -1.0 6.427397570570733e-16 -2.8001509174715184e-16
  outer loop
    vertex 10.50000009536745 44.24999999999992 -9.599999976158145
    vertex 10.500000095367449 40.499999988079004 -10.7
    vertex 10.500000095367449 40.499999988079004 -9.599999976158145
  endloop
endfacet
facet normal -1.0 6.427397570570733e-16 -2.8001509174715184e-16
  outer loop
    vertex 10.500000095367449 40.499999988079004 -10.7
    vertex 10.50000009536745 44.24999999999992 -9.599999976158145
    vertex 10.50000009536745 42.649999999999935 -10.700000000000006
  endloop
endfacet
facet normal -1.0 6.427397570570733e-16 -2.8001509174715184e-16
  outer loop
    vertex 10.50000009536745 42.649999999999935 -10.700000000000006
    vertex 10.50000009536745 44.24999999999992 -9.599999976158145
    vertex 10.50000009536745 42.649999999999935 -12.0
  endloop
endfacet
facet normal -1.0 6.427397570570733e-16 -2.8001509174715184e-16
  outer loop
    vertex 10.50000009536745 42.649999999999935 -12.0
    vertex 10.50000009536745 44.24999999999992 -9.599999976158145
    vertex 10.50000009536745 44.24999999999992 -12.0
  endloop
endfacet
facet normal -1.0 0.0 0.0
  outer loop
    vertex 5.950000023841876 36.499999999999936 -8.699999976158143
    vertex 5.950000023841876 34.499999999999936 -12.0
    vertex 5.950000023841876 34.499999999999936 -8.699999976158143
  endloop
endfacet
facet normal -1.0 0.0 0.0
  outer loop
    vertex 5.950000023841876 34.499999999999936 -12.0
    vertex 5.950000023841876 36.499999999999936 -8.699999976158143
    vertex 5.950000023841876 36.499999999999936 -10.7
  endloop
endfacet
facet normal -1.0 0.0 0.0
  outer loop
    vertex 5.950000023841876 34.499999999999936 -12.0
    vertex 5.950000023841876 36.499999999999936 -10.7
    vertex 5.950000023841876 37.34999999999993 -12.0
  endloop
endfacet
facet normal -1.0 0.0 0.0
  outer loop
    vertex 5.950000023841876 37.34999999999993 -12.0
    vertex 5.950000023841876 36.499999999999936 -10.7
    vertex 5.950000023841876 37.34999999999993 -10.700000000000003
  endloop
endfacet
facet normal 0.0 -1.0 0.0
  outer loop
    vertex 9.349999976158161 34.499999999999936 -8.699999976158143
    vertex 5.950000023841876 34.499999999999936 -12.0
    vertex 9.349999976158161 34.499999999999936 -12.0
  endloop
endfacet
facet normal 0.0 -1.0 0.0
  outer loop
    vertex 5.950000023841876 34.499999999999936 -12.0
    vertex 9.349999976158161 34.499999999999936 -8.699999976158143
    vertex 5.950000023841876 34.499999999999936 -8.699999976158143
  endloop
endfacet
facet normal 0.0 1.0 0.0
  outer loop
    vertex 10.50000009536745 44.24999999999992 -9.599999976158145
    vertex 12.500000047683734 44.24999999999992 -12.0
    vertex 10.50000009536745 44.24999999999992 -12.0
  endloop
endfacet
facet normal 0.0 1.0 0.0
  outer loop
    vertex 12.500000047683734 44.24999999999992 -12.0
    vertex 10.50000009536745 44.24999999999992 -9.599999976158145
    vertex 12.500000047683734 44.24999999999992 -9.599999976158145
  endloop
endfacet
facet normal 0.0 0.0 1.0
  outer loop
    vertex 9.349999976158163 43.49999999999992 -8.699999976158145
    vertex 5.950000023841878 45.499999999999915 -8.699999976158145
    vertex 5.950000023841878 43.49999999999992 -8.699999976158145
  endloop
endfacet
facet normal 0.0 0.0 1.0
  outer loop
    vertex 5.950000023841878 45.499999999999915 -8.699999976158145
    vertex 9.349999976158163 43.49999999999992 -8.699999976158145
    vertex 9.349999976158163 45.499999999999915 -8.699999976158145
  endloop
endfacet
facet normal -1.0 0.0 0.0
  outer loop
    vertex 5.950000023841878 45.499999999999915 -8.699999976158145
    vertex 5.950000023841878 43.49999999999992 -10.7
    vertex 5.950000023841878 43.49999999999992 -8.699999976158145
  endloop
endfacet
facet normal -1.0 0.0 0.0
  outer loop
    vertex 5.950000023841878 43.49999999999992 -10.7
    vertex 5.950000023841878 42.649999999999935 -12.0
    vertex 5.950000023841878 42.649999999999935 -10.700000000000006
  endloop
endfacet
facet normal -1.0 0.0 0.0
  outer loop
    vertex 5.950000023841878 42.649999999999935 -12.0
    vertex 5.950000023841878 43.49999999999992 -10.7
    vertex 5.950000023841878 45.499999999999915 -12.0
  endloop
endfacet
facet normal -1.0 0.0 0.0
  outer loop
    vertex 5.950000023841878 45.499999999999915 -12.0
    vertex 5.950000023841878 43.49999999999992 -10.7
    vertex 5.950000023841878 45.499999999999915 -8.699999976158145
  endloop
endfacet
facet normal 0.0 1.0 0.0
  outer loop
    vertex 5.950000023841878 45.499999999999915 -8.699999976158145
    vertex 9.349999976158163 45.499999999999915 -12.0
    vertex 5.950000023841878 45.499999999999915 -12.0
  endloop
endfacet
facet normal 0.0 1.0 0.0
  outer loop
    vertex 9.349999976158163 45.499999999999915 -12.0
    vertex 5.950000023841878 45.499999999999915 -8.699999976158145
    vertex 9.349999976158163 45.499999999999915 -8.699999976158145
  endloop
endfacet
facet normal 1.0 0.0 0.0
  outer loop
    vertex 9.349999976158163 45.499999999999915 -12.0
    vertex 9.349999976158163 42.649999999999935 -10.700000000000006
    vertex 9.349999976158163 42.649999999999935 -12.0
  endloop
endfacet
facet normal 1.0 0.0 0.0
  outer loop
    vertex 9.349999976158163 42.649999999999935 -10.700000000000006
    vertex 9.349999976158163 45.499999999999915 -12.0
    vertex 9.349999976158163 43.49999999999992 -10.7
  endloop
endfacet
facet normal 1.0 0.0 0.0
  outer loop
    vertex 9.349999976158163 43.49999999999992 -10.7
    vertex 9.349999976158163 45.499999999999915 -12.0
    vertex 9.349999976158163 43.49999999999992 -8.699999976158145
  endloop
endfacet
facet normal 1.0 0.0 0.0
  outer loop
    vertex 9.349999976158163 43.49999999999992 -8.699999976158145
    vertex 9.349999976158163 45.499999999999915 -12.0
    vertex 9.349999976158163 45.499999999999915 -8.699999976158145
  endloop
endfacet
facet normal 0.0 -1.0 0.0
  outer loop
    vertex 12.500000047683738 35.749999999999936 -9.599999976158145
    vertex 10.50000009536745 35.749999999999936 -12.0
    vertex 12.500000047683738 35.749999999999936 -12.0
  endloop
endfacet
facet normal 0.0 -1.0 0.0
  outer loop
    vertex 10.50000009536745 35.749999999999936 -12.0
    vertex 12.500000047683738 35.749999999999936 -9.599999976158145
    vertex 10.50000009536745 35.749999999999936 -9.599999976158145
  endloop
endfacet
facet normal 1.0 0.0 0.0
  outer loop
    vertex 9.349999976158161 37.34999999999993 -12.0
    vertex 9.349999976158161 34.499999999999936 -8.699999976158143
    vertex 9.349999976158161 34.499999999999936 -12.0
  endloop
endfacet
facet normal 1.0 0.0 0.0
  outer loop
    vertex 9.349999976158161 34.499999999999936 -8.699999976158143
    vertex 9.349999976158161 37.34999999999993 -12.0
    vertex 9.349999976158161 36.499999999999936 -10.7
  endloop
endfacet
facet normal 1.0 0.0 0.0
  outer loop
    vertex 9.349999976158161 36.499999999999936 -10.7
    vertex 9.349999976158161 37.34999999999993 -12.0
    vertex 9.349999976158161 37.34999999999993 -10.7
  endloop
endfacet
facet normal 1.0 0.0 0.0
  outer loop
    vertex 9.349999976158161 36.499999999999936 -8.699999976158143
    vertex 9.349999976158161 34.499999999999936 -8.699999976158143
    vertex 9.349999976158161 36.499999999999936 -10.7
  endloop
endfacet
facet normal 1.0 -3.2136987881576453e-16 1.400075465390688e-16
  outer loop
    vertex 4.799999904632589 44.24999999999992 -12.0
    vertex 4.799999904632589 42.649999999999935 -10.700000000000006
    vertex 4.799999904632589 42.649999999999935 -12.0
  endloop
endfacet
facet normal 1.0 -3.2136987881576453e-16 1.400075465390688e-16
  outer loop
    vertex 4.799999904632589 42.649999999999935 -10.700000000000006
    vertex 4.799999904632587 40.499999999999936 -9.599999976158145
    vertex 4.799999904632587 40.499999999999936 -10.7
  endloop
endfacet
facet normal 1.0 -3.2136987881576453e-16 1.400075465390688e-16
  outer loop
    vertex 4.799999904632587 40.499999999999936 -9.599999976158145
    vertex 4.799999904632589 42.649999999999935 -10.700000000000006
    vertex 4.799999904632589 44.24999999999992 -9.599999976158145
  endloop
endfacet
facet normal 1.0 -3.2136987881576453e-16 1.400075465390688e-16
  outer loop
    vertex 4.799999904632589 44.24999999999992 -9.599999976158145
    vertex 4.799999904632589 42.649999999999935 -10.700000000000006
    vertex 4.799999904632589 44.24999999999992 -12.0
  endloop
endfacet
facet normal 0.0 1.0 0.0
  outer loop
    vertex 9.349999976158163 42.649999999999935 -10.700000000000006
    vertex 10.50000009536745 42.649999999999935 -12.0
    vertex 9.349999976158163 42.649999999999935 -12.0
  endloop
endfacet
facet normal 0.0 1.0 0.0
  outer loop
    vertex 10.50000009536745 42.649999999999935 -12.0
    vertex 9.349999976158163 42.649999999999935 -10.700000000000006
    vertex 10.50000009536745 42.649999999999935 -10.700000000000006
  endloop
endfacet
facet normal 0.0 1.0 0.0
  outer loop
    vertex 2.7999999046325903 44.24999999999992 -9.599999976158145
    vertex 4.799999904632589 44.24999999999992 -12.0
    vertex 2.7999999046325903 44.24999999999992 -12.0
  endloop
endfacet
facet normal 0.0 1.0 0.0
  outer loop
    vertex 4.799999904632589 44.24999999999992 -12.0
    vertex 2.7999999046325903 44.24999999999992 -9.599999976158145
    vertex 4.799999904632589 44.24999999999992 -9.599999976158145
  endloop
endfacet
facet normal 0.0 1.0 0.0
  outer loop
    vertex 5.950000023841876 36.499999999999936 -8.699999976158143
    vertex 9.349999976158161 36.499999999999936 -10.7
    vertex 5.950000023841876 36.499999999999936 -10.7
  endloop
endfacet
facet normal 0.0 1.0 0.0
  outer loop
    vertex 9.349999976158161 36.499999999999936 -10.7
    vertex 5.950000023841876 36.499999999999936 -8.699999976158143
    vertex 9.349999976158161 36.499999999999936 -8.699999976158143
  endloop
endfacet
facet normal 0.0 -1.0 0.0
  outer loop
    vertex 5.950000023841876 37.34999999999993 -10.700000000000003
    vertex 4.799999904632589 37.34999999999993 -12.0
    vertex 5.950000023841876 37.34999999999993 -12.0
  endloop
endfacet
facet normal 0.0 -1.0 0.0
  outer loop
    vertex 4.799999904632589 37.34999999999993 -12.0
    vertex 5.950000023841876 37.34999999999993 -10.700000000000003
    vertex 4.799999904632589 37.34999999999993 -10.700000000000003
  endloop
endfacet
facet normal 1.0 3.2136987881576374e-16 1.4000754653906785e-16
  outer loop
    vertex 4.799999904632589 37.34999999999993 -12.0
    vertex 4.799999904632589 35.74999999999994 -9.599999976158145
    vertex 4.799999904632589 35.74999999999994 -12.0
  endloop
endfacet
facet normal 1.0 3.2136987881576374e-16 1.4000754653906785e-16
  outer loop
    vertex 4.799999904632589 35.74999999999994 -9.599999976158145
    vertex 4.799999904632589 37.34999999999993 -12.0
    vertex 4.799999904632589 37.34999999999993 -10.700000000000003
  endloop
endfacet
facet normal 1.0 3.2136987881576374e-16 1.4000754653906785e-16
  outer loop
    vertex 4.799999904632589 35.74999999999994 -9.599999976158145
    vertex 4.799999904632589 37.34999999999993 -10.700000000000003
    vertex 4.799999904632587 39.499999999999936 -9.599999976158145
  endloop
endfacet
facet normal 1.0 3.2136987881576374e-16 1.4000754653906785e-16
  outer loop
    vertex 4.799999904632587 39.499999999999936 -9.599999976158145
    vertex 4.799999904632589 37.34999999999993 -10.700000000000003
    vertex 4.799999904632587 39.499999999999936 -10.7
  endloop
endfacet
facet normal 0.0 -1.0 0.0
  outer loop
    vertex 4.799999904632589 35.74999999999994 -9.599999976158145
    vertex 2.799999904632589 35.74999999999994 -12.0
    vertex 4.799999904632589 35.74999999999994 -12.0
  endloop
endfacet
facet normal 0.0 -1.0 0.0
  outer loop
    vertex 2.799999904632589 35.74999999999994 -12.0
    vertex 4.799999904632589 35.74999999999994 -9.599999976158145
    vertex 2.799999904632589 35.74999999999994 -9.599999976158145
  endloop
endfacet
facet normal 0.0 -1.0 0.0
  outer loop
    vertex 10.50000009536745 37.34999999999993 -10.7
    vertex 9.349999976158161 37.34999999999993 -12.0
    vertex 10.50000009536745 37.34999999999993 -12.0
  endloop
endfacet
facet normal 0.0 -1.0 0.0
  outer loop
    vertex 9.349999976158161 37.34999999999993 -12.0
    vertex 10.50000009536745 37.34999999999993 -10.7
    vertex 9.349999976158161 37.34999999999993 -10.7
  endloop
endfacet
facet normal 0.0 0.0 -1.0
  outer loop
    vertex 4.799999904632589 44.24999999999992 -12.0
    vertex 2.7999999046325903 40.499999999999936 -12.0
    vertex 2.7999999046325903 44.24999999999992 -12.0
  endloop
endfacet
facet normal 0.0 0.0 -1.0
  outer loop
    vertex 2.7999999046325903 40.499999999999936 -12.0
    vertex 4.799999904632589 44.24999999999992 -12.0
    vertex 4.799999904632587 40.499999999999936 -12.0
  endloop
endfacet
facet normal 0.0 0.0 -1.0
  outer loop
    vertex 4.799999904632587 40.499999999999936 -12.0
    vertex 4.799999904632589 44.24999999999992 -12.0
    vertex 4.799999904632587 39.499999999999936 -12.0
  endloop
endfacet
facet normal 0.0 0.0 -1.0
  outer loop
    vertex 12.500000047683734 44.24999999999992 -12.0
    vertex 10.50000009536745 42.649999999999935 -12.0
    vertex 10.50000009536745 44.24999999999992 -12.0
  endloop
endfacet
facet normal 0.0 0.0 -1.0
  outer loop
    vertex 10.50000009536745 42.649999999999935 -12.0
    vertex 10.500000095367449 40.499999988079004 -12.0
    vertex 9.349999976158163 42.649999999999935 -12.0
  endloop
endfacet
facet normal 0.0 0.0 -1.0
  outer loop
    vertex 10.500000095367449 40.499999988079004 -12.0
    vertex 10.50000009536745 42.649999999999935 -12.0
    vertex 12.500000047683734 40.499999988079004 -12.0
  endloop
endfacet
facet normal 0.0 0.0 -1.0
  outer loop
    vertex 12.500000047683734 40.499999988079004 -12.0
    vertex 10.50000009536745 42.649999999999935 -12.0
    vertex 12.500000047683734 44.24999999999992 -12.0
  endloop
endfacet
facet normal 0.0 0.0 -1.0
  outer loop
    vertex 9.349999976158163 45.499999999999915 -12.0
    vertex 5.950000023841878 42.649999999999935 -12.0
    vertex 5.950000023841878 45.499999999999915 -12.0
  endloop
endfacet
facet normal 0.0 0.0 -1.0
  outer loop
    vertex 5.950000023841878 42.649999999999935 -12.0
    vertex 9.349999976158163 45.499999999999915 -12.0
    vertex 9.349999976158161 37.34999999999993 -12.0
  endloop
endfacet
facet normal 0.0 0.0 -1.0
  outer loop
    vertex 9.349999976158161 37.34999999999993 -12.0
    vertex 9.349999976158163 45.499999999999915 -12.0
    vertex 9.349999976158163 42.649999999999935 -12.0
  endloop
endfacet
facet normal 0.0 0.0 -1.0
  outer loop
    vertex 9.349999976158161 37.34999999999993 -12.0
    vertex 9.349999976158163 42.649999999999935 -12.0
    vertex 10.50000009536745 37.34999999999993 -12.0
  endloop
endfacet
facet normal 0.0 0.0 -1.0
  outer loop
    vertex 10.50000009536745 37.34999999999993 -12.0
    vertex 9.349999976158163 42.649999999999935 -12.0
    vertex 10.500000095367449 39.499999988079 -12.0
  endloop
endfacet
facet normal 0.0 0.0 -1.0
  outer loop
    vertex 10.500000095367449 39.499999988079 -12.0
    vertex 9.349999976158163 42.649999999999935 -12.0
    vertex 10.500000095367449 40.499999988079004 -12.0
  endloop
endfacet
facet normal 0.0 0.0 -1.0
  outer loop
    vertex 10.50000009536745 37.34999999999993 -12.0
    vertex 10.500000095367449 39.499999988079 -12.0
    vertex 12.500000047683738 39.499999988079 -12.0
  endloop
endfacet
facet normal 0.0 0.0 -1.0
  outer loop
    vertex 10.50000009536745 37.34999999999993 -12.0
    vertex 12.500000047683738 39.499999988079 -12.0
    vertex 10.50000009536745 35.749999999999936 -12.0
  endloop
endfacet
facet normal 0.0 0.0 -1.0
  outer loop
    vertex 10.50000009536745 35.749999999999936 -12.0
    vertex 12.500000047683738 39.499999988079 -12.0
    vertex 12.500000047683738 35.749999999999936 -12.0
  endloop
endfacet
facet normal 0.0 0.0 -1.0
  outer loop
    vertex 5.950000023841878 42.649999999999935 -12.0
    vertex 4.799999904632589 37.34999999999993 -12.0
    vertex 4.799999904632589 42.649999999999935 -12.0
  endloop
endfacet
facet normal 0.0 0.0 -1.0
  outer loop
    vertex 4.799999904632589 37.34999999999993 -12.0
    vertex 5.950000023841878 42.649999999999935 -12.0
    vertex 5.950000023841876 37.34999999999993 -12.0
  endloop
endfacet
facet normal 0.0 0.0 -1.0
  outer loop
    vertex 5.950000023841876 37.34999999999993 -12.0
    vertex 5.950000023841878 42.649999999999935 -12.0
    vertex 5.950000023841876 34.499999999999936 -12.0
  endloop
endfacet
facet normal 0.0 0.0 -1.0
  outer loop
    vertex 5.950000023841876 34.499999999999936 -12.0
    vertex 5.950000023841878 42.649999999999935 -12.0
    vertex 9.349999976158161 34.499999999999936 -12.0
  endloop
endfacet
facet normal 0.0 0.0 -1.0
  outer loop
    vertex 9.349999976158161 34.499999999999936 -12.0
    vertex 5.950000023841878 42.649999999999935 -12.0
    vertex 9.349999976158161 37.34999999999993 -12.0
  endloop
endfacet
facet normal 0.0 0.0 -1.0
  outer loop
    vertex 4.799999904632587 39.499999999999936 -12.0
    vertex 2.799999904632589 35.74999999999994 -12.0
    vertex 2.799999904632589 39.499999999999936 -12.0
  endloop
endfacet
facet normal 0.0 0.0 -1.0
  outer loop
    vertex 2.799999904632589 35.74999999999994 -12.0
    vertex 4.799999904632587 39.499999999999936 -12.0
    vertex 4.799999904632589 35.74999999999994 -12.0
  endloop
endfacet
facet normal 0.0 0.0 -1.0
  outer loop
    vertex 4.799999904632589 35.74999999999994 -12.0
    vertex 4.799999904632587 39.499999999999936 -12.0
    vertex 4.799999904632589 44.24999999999992 -12.0
  endloop
endfacet
facet normal 0.0 0.0 -1.0
  outer loop
    vertex 4.799999904632589 35.74999999999994 -12.0
    vertex 4.799999904632589 44.24999999999992 -12.0
    vertex 4.799999904632589 42.649999999999935 -12.0
  endloop
endfacet
facet normal 0.0 0.0 -1.0
  outer loop
    vertex 4.799999904632589 35.74999999999994 -12.0
    vertex 4.799999904632589 42.649999999999935 -12.0
    vertex 4.799999904632589 37.34999999999993 -12.0
  endloop
endfacet
facet normal 1.0 0.0 0.0
  outer loop
    vertex 10.500000095367449 40.499999988079004 -12.0
    vertex 10.500000095367449 39.499999988079 -10.7
    vertex 10.500000095367449 39.499999988079 -12.0
  endloop
endfacet
facet normal 1.0 0.0 0.0
  outer loop
    vertex 10.500000095367449 39.499999988079 -10.7
    vertex 10.500000095367449 40.499999988079004 -12.0
    vertex 10.500000095367449 40.499999988079004 -10.7
  endloop
endfacet
facet normal -1.0 0.0 0.0
  outer loop
    vertex 2.799999904632589 39.499999999999936 -9.599999976158145
    vertex 2.799999904632589 35.74999999999994 -12.0
    vertex 2.799999904632589 35.74999999999994 -9.599999976158145
  endloop
endfacet
facet normal -1.0 0.0 0.0
  outer loop
    vertex 2.799999904632589 35.74999999999994 -12.0
    vertex 2.799999904632589 39.499999999999936 -9.599999976158145
    vertex 2.799999904632589 39.499999999999936 -12.0
  endloop
endfacet
facet normal 0.0 0.0 1.0
  outer loop
    vertex 4.799999904632587 40.499999999999936 -9.599999976158145
    vertex 2.7999999046325903 44.24999999999992 -9.599999976158145
    vertex 2.7999999046325903 40.499999999999936 -9.599999976158145
  endloop
endfacet
facet normal 0.0 0.0 1.0
  outer loop
    vertex 2.7999999046325903 44.24999999999992 -9.599999976158145
    vertex 4.799999904632587 40.499999999999936 -9.599999976158145
    vertex 4.799999904632589 44.24999999999992 -9.599999976158145
  endloop
endfacet
facet normal 0.0 0.0 1.0
  outer loop
    vertex 12.500000047683734 40.499999988079004 -9.599999976158145
    vertex 10.50000009536745 44.24999999999992 -9.599999976158145
    vertex 10.500000095367449 40.499999988079004 -9.599999976158145
  endloop
endfacet
facet normal 0.0 0.0 1.0
  outer loop
    vertex 10.50000009536745 44.24999999999992 -9.599999976158145
    vertex 12.500000047683734 40.499999988079004 -9.599999976158145
    vertex 12.500000047683734 44.24999999999992 -9.599999976158145
  endloop
endfacet
facet normal 7.723413189858139e-17 6.649582578794004e-16 1.0
  outer loop
    vertex 10.50000009536745 37.34999999999993 -10.7
    vertex 9.349999976158163 42.649999999999935 -10.700000000000006
    vertex 9.349999976158161 37.34999999999993 -10.7
  endloop
endfacet
facet normal 7.723413189858139e-17 6.649582578794004e-16 1.0
  outer loop
    vertex 9.349999976158163 42.649999999999935 -10.700000000000006
    vertex 10.50000009536745 37.34999999999993 -10.7
    vertex 10.500000095367449 39.499999988079 -10.7
  endloop
endfacet
facet normal 7.723413189858139e-17 6.649582578794004e-16 1.0
  outer loop
    vertex 9.349999976158163 42.649999999999935 -10.700000000000006
    vertex 10.500000095367449 40.499999988079004 -10.7
    vertex 10.50000009536745 42.649999999999935 -10.700000000000006
  endloop
endfacet
facet normal 7.723413189858139e-17 6.649582578794004e-16 1.0
  outer loop
    vertex 10.500000095367449 40.499999988079004 -10.7
    vertex 9.349999976158163 42.649999999999935 -10.700000000000006
    vertex 10.500000095367449 39.499999988079 -10.7
  endloop
endfacet
facet normal 7.723413189858139e-17 6.649582578794004e-16 1.0
  outer loop
    vertex 9.349999976158161 36.499999999999936 -10.7
    vertex 5.950000023841876 37.34999999999993 -10.700000000000003
    vertex 5.950000023841876 36.499999999999936 -10.7
  endloop
endfacet
facet normal 7.723413189858139e-17 6.649582578794004e-16 1.0
  outer loop
    vertex 5.950000023841876 37.34999999999993 -10.700000000000003
    vertex 9.349999976158161 36.499999999999936 -10.7
    vertex 5.950000023841878 42.649999999999935 -10.700000000000006
  endloop
endfacet
facet normal 7.723413189858139e-17 6.649582578794004e-16 1.0
  outer loop
    vertex 5.950000023841878 42.649999999999935 -10.700000000000006
    vertex 9.349999976158161 36.499999999999936 -10.7
    vertex 5.950000023841878 43.49999999999992 -10.7
  endloop
endfacet
facet normal 7.723413189858139e-17 6.649582578794004e-16 1.0
  outer loop
    vertex 5.950000023841878 43.49999999999992 -10.7
    vertex 9.349999976158161 36.499999999999936 -10.7
    vertex 9.349999976158161 37.34999999999993 -10.7
  endloop
endfacet
facet normal 7.723413189858139e-17 6.649582578794004e-16 1.0
  outer loop
    vertex 5.950000023841878 43.49999999999992 -10.7
    vertex 9.349999976158161 37.34999999999993 -10.7
    vertex 9.349999976158163 43.49999999999992 -10.7
  endloop
endfacet
facet normal 7.723413189858139e-17 6.649582578794004e-16 1.0
  outer loop
    vertex 9.349999976158163 43.49999999999992 -10.7
    vertex 9.349999976158161 37.34999999999993 -10.7
    vertex 9.349999976158163 42.649999999999935 -10.700000000000006
  endloop
endfacet
facet normal 7.723413189858139e-17 6.649582578794004e-16 1.0
  outer loop
    vertex 4.799999904632589 37.34999999999993 -10.700000000000003
    vertex 4.799999904632587 40.499999999999936 -10.7
    vertex 4.799999904632587 39.499999999999936 -10.7
  endloop
endfacet
facet normal 7.723413189858139e-17 6.649582578794004e-16 1.0
  outer loop
    vertex 4.799999904632587 40.499999999999936 -10.7
    vertex 4.799999904632589 37.34999999999993 -10.700000000000003
    vertex 4.799999904632589 42.649999999999935 -10.700000000000006
  endloop
endfacet
facet normal 7.723413189858139e-17 6.649582578794004e-16 1.0
  outer loop
    vertex 4.799999904632589 42.649999999999935 -10.700000000000006
    vertex 4.799999904632589 37.34999999999993 -10.700000000000003
    vertex 5.950000023841876 37.34999999999993 -10.700000000000003
  endloop
endfacet
facet normal 7.723413189858139e-17 6.649582578794004e-16 1.0
  outer loop
    vertex 4.799999904632589 42.649999999999935 -10.700000000000006
    vertex 5.950000023841876 37.34999999999993 -10.700000000000003
    vertex 5.950000023841878 42.649999999999935 -10.700000000000006
  endloop
endfacet
facet normal -1.0 -3.2136987910299086e-16 -1.4000754720456122e-16
  outer loop
    vertex 10.50000009536745 35.749999999999936 -9.599999976158145
    vertex 10.50000009536745 37.34999999999993 -10.7
    vertex 10.50000009536745 35.749999999999936 -12.0
  endloop
endfacet
facet normal -1.0 -3.2136987910299086e-16 -1.4000754720456122e-16
  outer loop
    vertex 10.50000009536745 37.34999999999993 -10.7
    vertex 10.50000009536745 35.749999999999936 -9.599999976158145
    vertex 10.500000095367449 39.499999988079 -9.599999976158145
  endloop
endfacet
facet normal -1.0 -3.2136987910299086e-16 -1.4000754720456122e-16
  outer loop
    vertex 10.50000009536745 37.34999999999993 -10.7
    vertex 10.500000095367449 39.499999988079 -9.599999976158145
    vertex 10.500000095367449 39.499999988079 -10.7
  endloop
endfacet
facet normal -1.0 -3.2136987910299086e-16 -1.4000754720456122e-16
  outer loop
    vertex 10.50000009536745 37.34999999999993 -12.0
    vertex 10.50000009536745 35.749999999999936 -12.0
    vertex 10.50000009536745 37.34999999999993 -10.7
  endloop
endfacet
facet normal 0.0 0.0 1.0
  outer loop
    vertex 10.50000009536745 35.749999999999936 -9.599999976158145
    vertex 12.500000047683738 39.499999988079 -9.599999976158145
    vertex 10.500000095367449 39.499999988079 -9.599999976158145
  endloop
endfacet
facet normal 0.0 0.0 1.0
  outer loop
    vertex 12.500000047683738 39.499999988079 -9.599999976158145
    vertex 10.50000009536745 35.749999999999936 -9.599999976158145
    vertex 12.500000047683738 35.749999999999936 -9.599999976158145
  endloop
endfacet
facet normal 0.0 -1.0 0.0
  outer loop
    vertex 4.799999904632587 40.499999999999936 -10.7
    vertex 2.7999999046325903 40.499999999999936 -12.0
    vertex 4.799999904632587 40.499999999999936 -12.0
  endloop
endfacet
facet normal 0.0 -1.0 0.0
  outer loop
    vertex 2.7999999046325903 40.499999999999936 -12.0
    vertex 4.799999904632587 40.499999999999936 -10.7
    vertex 2.7999999046325903 40.499999999999936 -9.599999976158145
  endloop
endfacet
facet normal 0.0 -1.0 0.0
  outer loop
    vertex 2.7999999046325903 40.499999999999936 -9.599999976158145
    vertex 4.799999904632587 40.499999999999936 -10.7
    vertex 4.799999904632587 40.499999999999936 -9.599999976158145
  endloop
endfacet
facet normal -1.0 0.0 0.0
  outer loop
    vertex 2.7999999046325903 44.24999999999992 -9.599999976158145
    vertex 2.7999999046325903 40.499999999999936 -12.0
    vertex 2.7999999046325903 40.499999999999936 -9.599999976158145
  endloop
endfacet
facet normal -1.0 0.0 0.0
  outer loop
    vertex 2.7999999046325903 40.499999999999936 -12.0
    vertex 2.7999999046325903 44.24999999999992 -9.599999976158145
    vertex 2.7999999046325903 44.24999999999992 -12.0
  endloop
endfacet
facet normal 0.0 1.0 0.0
  outer loop
    vertex 2.799999904632589 39.499999999999936 -9.599999976158145
    vertex 4.799999904632587 39.499999999999936 -12.0
    vertex 2.799999904632589 39.499999999999936 -12.0
  endloop
endfacet
facet normal 0.0 1.0 0.0
  outer loop
    vertex 4.799999904632587 39.499999999999936 -12.0
    vertex 2.799999904632589 39.499999999999936 -9.599999976158145
    vertex 4.799999904632587 39.499999999999936 -10.7
  endloop
endfacet
facet normal 0.0 1.0 0.0
  outer loop
    vertex 4.799999904632587 39.499999999999936 -10.7
    vertex 2.799999904632589 39.499999999999936 -9.599999976158145
    vertex 4.799999904632587 39.499999999999936 -9.599999976158145
  endloop
endfacet
facet normal -0.0 -1.0 -0.0
  outer loop
    vertex 12.500000047683734 40.499999988079004 -9.599999976158145
    vertex 10.500000095367449 40.499999988079004 -12.0
    vertex 12.500000047683734 40.499999988079004 -12.0
  endloop
endfacet
facet normal -0.0 -1.0 -0.0
  outer loop
    vertex 10.500000095367449 40.499999988079004 -12.0
    vertex 12.500000047683734 40.499999988079004 -9.599999976158145
    vertex 10.500000095367449 40.499999988079004 -10.7
  endloop
endfacet
facet normal -0.0 -1.0 -0.0
  outer loop
    vertex 10.500000095367449 40.499999988079004 -10.7
    vertex 12.500000047683734 40.499999988079004 -9.599999976158145
    vertex 10.500000095367449 40.499999988079004 -9.599999976158145
  endloop
endfacet
facet normal 1.0 0.0 0.0
  outer loop
    vertex 12.500000047683734 44.24999999999992 -12.0
    vertex 12.500000047683734 40.499999988079004 -9.599999976158145
    vertex 12.500000047683734 40.499999988079004 -12.0
  endloop
endfacet
facet normal 1.0 0.0 0.0
  outer loop
    vertex 12.500000047683734 40.499999988079004 -9.599999976158145
    vertex 12.500000047683734 44.24999999999992 -12.0
    vertex 12.500000047683734 44.24999999999992 -9.599999976158145
  endloop
endfacet
facet normal 0.0 1.0 0.0
  outer loop
    vertex 10.500000095367449 39.499999988079 -10.7
    vertex 12.500000047683738 39.499999988079 -12.0
    vertex 10.500000095367449 39.499999988079 -12.0
  endloop
endfacet
facet normal 0.0 1.0 0.0
  outer loop
    vertex 12.500000047683738 39.499999988079 -12.0
    vertex 10.500000095367449 39.499999988079 -10.7
    vertex 12.500000047683738 39.499999988079 -9.599999976158145
  endloop
endfacet
facet normal 0.0 1.0 0.0
  outer loop
    vertex 12.500000047683738 39.499999988079 -9.599999976158145
    vertex 10.500000095367449 39.499999988079 -10.7
    vertex 10.500000095367449 39.499999988079 -9.599999976158145
  endloop
endfacet
facet normal 1.0 0.0 0.0
  outer loop
    vertex 12.500000047683738 39.499999988079 -12.0
    vertex 12.500000047683738 35.749999999999936 -9.599999976158145
    vertex 12.500000047683738 35.749999999999936 -12.0
  endloop
endfacet
facet normal 1.0 0.0 0.0
  outer loop
    vertex 12.500000047683738 35.749999999999936 -9.599999976158145
    vertex 12.500000047683738 39.499999988079 -12.0
    vertex 12.500000047683738 39.499999988079 -9.599999976158145
  endloop
endfacet
facet normal 0.0 0.0 1.0
  outer loop
    vertex 9.349999976158161 34.499999999999936 -8.699999976158143
    vertex 5.950000023841876 36.499999999999936 -8.699999976158143
    vertex 5.950000023841876 34.499999999999936 -8.699999976158143
  endloop
endfacet
facet normal 0.0 0.0 1.0
  outer loop
    vertex 5.950000023841876 36.499999999999936 -8.699999976158143
    vertex 9.349999976158161 34.499999999999936 -8.699999976158143
    vertex 9.349999976158161 36.499999999999936 -8.699999976158143
  endloop
endfacet
endsolid uClouds_SE_Model
